PathFileType	4	(X/Y/Z)
DataRate	CameraRate	NumFrames	NumMarkers	Units	OrigDataRate	OrigDataStartFrame	OrigNumFrames	
  120.0	  120.0	    4	     56	     mm	  120.0	      414	    551
Frame#	Time	LASI			RASI			LPSI			RPSI			RTH1			RTH2			RTH3			RLFC			RMFC			LTH1			LTH2			LTH3			LLFC			LMFC			RTB1			RTB2			RTB3			RLMAL			RMMAL			LTB1			LTB2			LTB3			LMMAL			LLMAL			RCAL			RTOE			RMT5			LCAL			LTOE			LMT5			LACR			RACR			CLAV			C7			LASH			LPSH			RASH			RPSH			RUA1			RUA2			RUA3			RLEL			RMEL			LUA1			LUA2			LUA3			LLEL			LMEL			RFAsuperior			RFAradius			RFAulna			LFAsuperior			LFAradius			LFAulna			RHJC			LHJC			
		X1	Y1	Z1	X2	Y2	Z2	X3	Y3	Z3	X4	Y4	Z4	X5	Y5	Z5	X6	Y6	Z6	X7	Y7	Z7	X8	Y8	Z8	X9	Y9	Z9	X10	Y10	Z10	X11	Y11	Z11	X12	Y12	Z12	X13	Y13	Z13	X14	Y14	Z14	X15	Y15	Z15	X16	Y16	Z16	X17	Y17	Z17	X18	Y18	Z18	X19	Y19	Z19	X20	Y20	Z20	X21	Y21	Z21	X22	Y22	Z22	X23	Y23	Z23	X24	Y24	Z24	X25	Y25	Z25	X26	Y26	Z26	X27	Y27	Z27	X28	Y28	Z28	X29	Y29	Z29	X30	Y30	Z30	X31	Y31	Z31	X32	Y32	Z32	X33	Y33	Z33	X34	Y34	Z34	X35	Y35	Z35	X36	Y36	Z36	X37	Y37	Z37	X38	Y38	Z38	X39	Y39	Z39	X40	Y40	Z40	X41	Y41	Z41	X42	Y42	Z42	X43	Y43	Z43	X44	Y44	Z44	X45	Y45	Z45	X46	Y46	Z46	X47	Y47	Z47	X48	Y48	Z48	X49	Y49	Z49	X50	Y50	Z50	X51	Y51	Z51	X52	Y52	Z52	X53	Y53	Z53	X54	Y54	Z54	X55	Y55	Z55	X56	Y56	Z56	

414	3.45000	567.40786	1026.85294	-695.73269	696.58465	1025.18569	-481.33938	463.59747	1046.52147	-536.18836	509.52499	1046.57612	-462.69415	676.33934	849.71768	-408.27094	698.74406	724.39598	-445.18989	621.76858	612.69196	-373.63818	633.09791	530.34040	-375.51601	547.76498	500.52560	-453.62943	492.61754	883.33942	-713.42977	527.96566	766.63115	-729.98041	446.34787	638.25842	-681.93855	435.01185	531.44509	-682.37791	506.16949	520.23538	-583.03338	632.02257	400.33051	-429.86640	635.73679	343.79568	-356.59845	609.39697	223.38291	-409.31149	591.11378	132.63144	-333.44840	566.92002	124.32545	-416.47676	493.74948	394.87851	-658.84528	420.99775	299.44951	-689.46034	468.06048	207.65946	-641.00604	462.51483	121.45497	-607.49436	391.79672	125.55344	-654.92245	513.90525	100.88422	-330.12933	688.84462	74.84877	-460.02639	716.93021	62.51268	-366.23182	361.97726	97.86997	-586.74768	543.67037	80.26983	-707.32147	470.75051	60.60940	-764.60237	439.20021	1471.21134	-674.88062	628.90584	1467.31662	-352.55977	636.86710	1455.32976	-546.96444	510.84672	1530.50784	-499.94542	518.31285	1444.44058	-680.93648	405.78846	1442.01763	-616.42277	680.38245	1444.01433	-402.71550	575.05890	1433.21559	-342.72083	679.30591	1371.81773	-286.49479	727.66110	1320.73268	-299.14522	681.69217	1274.87508	-219.11192	764.10576	1233.92839	-194.21900	714.12346	1170.90276	-233.69728	393.08826	1402.00196	-722.48668	367.64716	1313.54589	-708.57632	379.31975	1322.10658	-785.11181	352.91156	1235.44498	-855.15471	375.45078	1167.50103	-803.94290	831.29958	1241.15732	-243.06952	937.09125	1209.16438	-371.31437	963.61002	1181.50216	-317.04484	410.53676	1252.57158	-890.85715	582.25407	1232.16501	-941.55407	551.29800	1208.94156	-991.30503	627.58384	953.46465	-481.88100	536.91821	976.91427	-635.02111	
415	3.45833	567.32862	1026.88651	-695.68362	696.50840	1025.21018	-481.29357	463.56726	1046.51772	-536.19372	509.47847	1046.57154	-462.68889	676.28873	849.70906	-408.26821	698.68588	724.41057	-445.15050	621.74863	612.70196	-373.54670	633.05708	530.30462	-375.55005	547.64467	500.54465	-453.57555	492.56598	883.36042	-713.38361	527.88803	766.62717	-729.90242	446.26796	638.28179	-681.90829	434.94765	531.46413	-682.30835	506.17753	520.21703	-583.05547	631.93270	400.35035	-429.84259	635.71502	343.79568	-356.59396	609.27862	223.38354	-409.22277	591.09244	132.66415	-333.40330	566.81449	124.34439	-416.44568	493.60269	394.80759	-658.60220	420.91069	299.46880	-689.40978	467.93834	207.60717	-640.83233	462.22295	121.58735	-607.31523	391.70930	125.58919	-654.86840	513.80859	100.90324	-330.12620	688.75666	74.85666	-459.99929	716.86402	62.51813	-366.22033	361.96406	97.88279	-586.73225	543.62023	80.26407	-707.30011	470.66086	60.63858	-764.55995	439.09429	1471.23681	-674.86499	628.84668	1467.32449	-352.54609	636.77292	1455.38738	-546.93143	510.73670	1530.53170	-499.94255	518.15687	1444.48951	-680.79671	405.64526	1442.03875	-616.44012	680.27841	1444.05873	-402.68993	574.98837	1433.23580	-342.73124	679.23758	1371.84454	-286.48816	727.56323	1320.77427	-299.13369	681.62766	1274.90211	-219.11745	764.07241	1233.95565	-194.23054	714.04723	1170.96086	-233.68762	392.99479	1402.02260	-722.48052	367.38466	1313.58798	-708.54114	379.19059	1322.13836	-785.07582	352.80541	1235.46623	-855.13617	375.44859	1167.53322	-803.93583	831.21015	1241.21706	-243.08103	936.99361	1209.23549	-371.29444	963.55165	1181.54232	-317.09437	410.43142	1252.59274	-890.81336	582.16179	1232.18936	-941.55483	551.19294	1208.96149	-991.21711	627.51954	953.48047	-481.85163	536.86929	976.93389	-635.00044	
416	3.46667	567.22486	1026.92940	-695.60195	696.41621	1025.23910	-481.24135	463.54858	1046.52227	-536.20807	509.41715	1046.57513	-462.69219	676.22328	849.69676	-408.31920	698.61278	724.43206	-445.12345	621.73974	612.71083	-373.51462	633.06195	530.33670	-375.51884	547.50077	500.55935	-453.49374	492.49159	883.38991	-713.31489	527.76055	766.60958	-729.76220	446.14433	638.30925	-681.84776	434.85438	531.50211	-682.26993	506.22142	520.23955	-583.03550	631.82440	400.36851	-429.82036	635.67343	343.76589	-356.66607	609.13029	223.38380	-409.13263	591.06512	132.70361	-333.36649	566.67987	124.38708	-416.39802	493.39553	394.71441	-658.26728	420.77918	299.49286	-689.33818	467.80357	207.59929	-640.70781	461.92024	121.71663	-606.97087	391.58716	125.63209	-654.79544	513.70813	100.92349	-330.12305	688.63208	74.88049	-459.99007	716.79205	62.53212	-366.22440	361.96435	97.90118	-586.72493	543.56656	80.26096	-707.30349	470.54005	60.68540	-764.49639	438.97980	1471.27508	-674.84696	628.81711	1467.33872	-352.52568	636.66364	1455.45352	-546.92786	510.62371	1530.56151	-499.94791	517.97628	1444.55251	-680.60911	405.51685	1442.08266	-616.45181	680.16549	1444.11269	-402.68317	574.92354	1433.26673	-342.74416	679.18104	1371.88310	-286.48886	727.46389	1320.83015	-299.14267	681.57438	1274.93756	-219.12896	764.04717	1233.99789	-194.25095	713.96043	1171.01474	-233.67576	392.88782	1402.04297	-722.45981	367.07045	1313.62395	-708.47066	379.03676	1322.17825	-785.02136	352.66101	1235.49528	-855.08583	375.41259	1167.55816	-803.90536	831.10922	1241.29620	-243.09593	936.87812	1209.32426	-371.28843	963.48838	1181.58175	-317.20098	410.30191	1252.62182	-890.75988	582.06208	1232.23602	-941.54574	551.05067	1208.99908	-991.08814	627.43278	953.50361	-481.80716	536.81134	976.96079	-634.97286	
417	3.47500	567.11137	1026.97260	-695.49645	696.32165	1025.27068	-481.19217	463.54422	1046.52381	-536.23151	509.34390	1046.58324	-462.70208	676.15652	849.68835	-408.39850	698.53671	724.46008	-445.10652	621.73946	612.71798	-373.52359	633.09087	530.40503	-375.45828	547.34925	500.57707	-453.41753	492.39703	883.41906	-713.23352	527.62162	766.59613	-729.60700	446.00271	638.33285	-681.77019	434.73949	531.54823	-682.26308	506.28084	520.28641	-582.99065	631.70961	400.38298	-429.79700	635.62259	343.71717	-356.79150	608.96992	223.37946	-409.03589	591.03062	132.74317	-333.34564	566.53393	124.44212	-416.34215	493.15445	394.60565	-657.88145	420.63714	299.51779	-689.26505	467.70269	207.67289	-640.71554	461.56943	121.86969	-606.64090	391.45187	125.67036	-654.71880	513.61868	100.93982	-330.12214	688.49266	74.91410	-459.99153	716.72882	62.54606	-366.24672	361.97476	97.91651	-586.72872	543.52068	80.26219	-707.33861	470.41121	60.73541	-764.42427	438.87045	1471.31685	-674.83492	628.79568	1467.36186	-352.51445	636.55417	1455.52008	-546.94217	510.51937	1530.59123	-499.96210	517.78526	1444.61902	-680.39820	405.40961	1442.13763	-616.45997	680.05559	1444.17271	-402.69318	574.86690	1433.29912	-342.75895	679.13687	1371.92643	-286.49504	727.37687	1320.89469	-299.16264	681.53567	1274.97398	-219.14565	764.02639	1234.04771	-194.28017	713.87100	1171.05719	-233.65860	392.77668	1402.06098	-722.43106	366.74576	1313.64861	-708.38484	378.87992	1322.21573	-784.96288	352.50020	1235.52640	-855.01853	375.34821	1167.57635	-803.86140	831.01140	1241.37978	-243.11069	936.75750	1209.41682	-371.29920	963.42862	1181.62831	-317.32793	410.16141	1252.65439	-890.70356	581.96642	1232.29491	-941.53411	550.89825	1209.05269	-990.94410	627.33796	953.53029	-481.75336	536.75522	976.98653	-634.94264	
